; NON-PLATED HOLES START AT T1
; THROUGH (PLATED) HOLES START AT T100
M48
INCH
T1C0.043307
T100C0.036000
T101C0.015748
T102C0.086614
%
T1
X008218Y003968
X008218Y002196
X001324Y003944
X001324Y002172
T100
X007234Y004460
X002308Y004436
X007234Y001704
X002308Y001680
X007234Y003526
X007234Y002638
X002308Y003502
X002308Y002614
T101
X004940Y004432
X005002Y001642
X004940Y002614
X004940Y003502
T102
X008179Y000799
X001363Y000775
X008179Y005365
X001363Y005342
T00
M30
